<svg width="42" height="29" viewBox="0 0 42 29" fill="none" xmlns="http://www.w3.org/2000/svg">
<path d="M6.95643 11C6.95643 9.06742 8.51403 7.50001 10.4345 7.50001H17.371C19.3025 7.50001 20.8688 5.9238 20.8688 3.98021V0.5H6.95643V4C6.95643 5.9326 5.39883 7.50001 3.47834 7.50001H0.000244141V14.5H6.95643V11Z" fill="white"/>
<path d="M6.95643 14.5V18C6.95643 19.9326 5.39883 21.5 3.47834 21.5H0.000244141V28.5H6.95643V25C6.95643 23.0674 8.51403 21.5 10.4345 21.5H17.371C19.3025 21.5 20.8688 19.9238 20.8688 17.9802V14.5H6.95643Z" fill="white"/>
<path d="M34.781 18C34.781 19.9326 33.2234 21.5 31.3029 21.5H24.3664C22.435 21.5 20.8687 23.0762 20.8687 25.0198V28.5H34.781V25C34.781 23.0674 36.3386 21.5 38.2591 21.5H41.7372V14.5H34.781V18Z" fill="white"/>
<path d="M34.781 11C34.781 9.06742 36.3386 7.50001 38.2591 7.50001H41.7372V0.5H34.781V4C34.781 5.9326 33.2234 7.50001 31.3029 7.50001H24.3664C22.435 7.50001 20.8687 9.07622 20.8687 11.0198V14.5H34.781V11Z" fill="white"/>
</svg>
